<?xml version="1.0" standalone="no"?>
<!DOCTYPE svg PUBLIC "-//W3C//DTD SVG 20010904//EN"
 "http://www.w3.org/TR/2001/REC-SVG-20010904/DTD/svg10.dtd">
<svg version="1.0" xmlns="http://www.w3.org/2000/svg"
 width="225.000000pt" height="225.000000pt" viewBox="0 0 225.000000 225.000000"
 preserveAspectRatio="xMidYMid meet">
<metadata>
Created by potrace 1.11, written by Peter Selinger 2001-2013
</metadata>
<g transform="translate(0.000000,225.000000) scale(0.100000,-0.100000)"
fill="#000000" stroke="none">
<path d="M1010 2225 c-8 -2 -49 -9 -90 -15 -210 -34 -417 -145 -580 -309 -156
-158 -258 -349 -301 -566 -18 -90 -18 -320 0 -410 44 -220 145 -410 306 -570
160 -161 350 -262 570 -306 90 -18 320 -18 410 0 220 44 410 145 570 306 161
160 262 350 306 570 18 90 18 320 0 410 -43 217 -145 408 -301 566 -156 158
-340 259 -555 305 -64 14 -300 28 -335 19z m-169 -545 c112 -34 109 -29 109
-191 0 -129 -1 -139 -19 -139 -15 0 -19 10 -24 56 -7 66 -47 155 -84 184 -59
46 -154 44 -218 -4 -37 -28 -77 -99 -102 -181 -15 -49 -18 -94 -18 -250 0
-212 11 -272 68 -378 59 -111 167 -156 256 -106 44 25 74 67 110 155 31 77 51
93 51 42 -1 -63 -28 -238 -39 -252 -14 -17 -74 -32 -162 -41 -160 -17 -304 66
-381 220 -56 112 -63 148 -63 330 0 150 3 179 23 245 55 175 146 282 272 321
48 14 157 9 221 -11z m830 4 c126 -37 191 -180 144 -315 -20 -56 -58 -105 -97
-125 l-32 -16 49 -19 c65 -25 111 -71 136 -138 29 -77 24 -225 -10 -289 -34
-65 -87 -118 -149 -149 -56 -28 -60 -28 -269 -31 l-213 -3 0 29 c0 24 7 32 42
48 33 15 44 26 49 49 4 17 7 215 8 442 1 455 4 435 -64 447 -30 6 -35 11 -35
36 l0 28 88 7 c48 3 96 7 107 9 62 10 197 4 246 -10z"/>
<path d="M1493 1623 c-23 -4 -23 -5 -23 -199 l0 -194 61 0 c56 0 64 3 94 33
56 56 69 205 27 296 -26 57 -81 79 -159 64z"/>
<path d="M1475 1147 c-4 -8 -5 -105 -3 -217 l3 -202 33 -29 c26 -23 42 -29 78
-29 39 0 51 5 79 33 94 94 83 358 -18 431 -36 27 -164 36 -172 13z"/>
</g>
</svg>
